# xmcd
#
# Track frame offsets: 
#        150
#        10850
#        21937
#        22679
#        35941
#        36528
#        49023
#        67196
#        84947
#        85510
#        95218
#        109359
#        122764
#        135488
#        137564
#        146623
#        159095
#        160328
#        174948
#        192403
#        192928
#        215773
#        236063
#        250765
#        251276
#
# Disc length: 3492 seconds
#
# Revision: 2
# Processed by: cddbd v1.5.2PL0 Copyright (c) Steve Scherf et al.
# Submitted via: ExactAudioCopyFreeDBPlugin 1.0
#
DISCID=590da219
DTITLE=Various Artist - The Ultimate Motown Christmas Collection [CD 
DTITLE=1)
DYEAR=2009
DGENRE=Christmas
TTITLE0=The Jackson 5 - Santa Claus Is Coming To Town
TTITLE1=Stevie Wonder - What Christmas Means To Me
TTITLE2=Eddie Kendricks - Season's Greetings from Eddie Kendricks
TTITLE3=The Temptations - Rudolph, The Red-Nosed Reindeer
TTITLE4=The Supremes - Season's Greetings from The Supremes
TTITLE5=The Supremes - My Favorite Things
TTITLE6=Smokey Robinson and The Miracles - Deck The Halls - Bring A Torc
TTITLE6=h, Jeannette, Isabelle
TTITLE7=Stevie Wonder - Ave Maria
TTITLE8=Thelma Houston - Season's Greetings from Thelma Houston
TTITLE9=The Supremes - Joy To The World
TTITLE10=Smokey Robinson and The Miracles - God Rest Ye Merry Gentlemen
TTITLE11=The Supremes - Silver Bells
TTITLE12=Stevie Wonder - Someday At Christmas
TTITLE13=Jr. Walker - Season's Greetings from Jr. Walker
TTITLE14=The Funk Brothers - Winter Wonderland
TTITLE15=Smokey Robinson and The Miracles - Jingle Bells
TTITLE16=The Commodores - Season's Greetings from The Commodores
TTITLE17=The Temptations - My Christmas Tree
TTITLE18=The Supremes - White Christmas
TTITLE19=The Velvelettes - Season's Greetings from The Velvelettes
TTITLE20=Four Tops - Merry Christmas Baby
TTITLE21=Johnny Gill - Give Love On Christmas Day
TTITLE22=Marvin Gaye - Christmas In The City
TTITLE23=The Temptations - Season's Greetings from The Temptations
TTITLE24=The Temptations - Silent Night (Stripped Version)
EXTD=
EXTT0=
EXTT1=
EXTT2=
EXTT3=
EXTT4=
EXTT5=
EXTT6=
EXTT7=
EXTT8=
EXTT9=
EXTT10=
EXTT11=
EXTT12=
EXTT13=
EXTT14=
EXTT15=
EXTT16=
EXTT17=
EXTT18=
EXTT19=
EXTT20=
EXTT21=
EXTT22=
EXTT23=
EXTT24=
PLAYORDER=
